<?xml version="1.0" encoding="UTF-8"?>
<svg xmlns="http://www.w3.org/2000/svg" width="37" height="36" viewBox="0 0 37 36" fill="none">
  <path d="M16.4985 36.0009H17.8285C20.8093 36.0009 23.2285 33.5817 23.2285 30.6009C23.2285 27.6201 20.8093 25.2009 17.8285 25.2009C14.8477 25.2009 10.8 22.7656 10.8 18.5309C10.8 15.4061 8.40932 14.1309 5.42852 14.1309C2.44772 14.1309 0.0285168 16.5501 0.0285168 19.5309C0.0285168 28.6137 7.41572 36.0009 16.4985 36.0009Z" fill="#A769F6"></path>
  <path d="M16.477 -0.000858307H25.807C28.7878 -0.000858307 31.207 2.41834 31.207 5.39914C31.207 8.37994 28.7878 10.7991 25.807 10.7991H17.8594C14 10.7991 10.807 13.999 10.807 17.4691C10.807 20.5939 8.38783 21.8691 5.40703 21.8691C2.42623 21.8691 0.0070343 19.4499 0.0070343 16.4691C0.0070343 7.38634 7.39423 -0.000858307 16.477 -0.000858307Z" fill="#FF8541"></path>
  <path d="M0.00695381 16.4692L0.00695396 19.7992C0.00695409 22.78 2.42616 25.1992 5.40695 25.1992C8.38775 25.1992 10.807 22.78 10.807 19.7992L10.807 16.4692C10.807 13.3408 13.3522 10.7992 16.477 10.7992C19.6018 10.7992 21.877 8.38002 21.877 5.39922C21.877 2.41842 19.4578 -0.00078 16.477 -0.00077987C7.39415 -0.000779473 0.00695341 7.38642 0.00695381 16.4692Z" fill="#FF8541"></path>
  <path d="M23.5012 17.9996C23.5012 15.0173 21.0835 12.5996 18.1012 12.5996C15.1188 12.5996 12.7012 15.0173 12.7012 17.9996C12.7012 20.9819 15.1188 23.3996 18.1012 23.3996C21.0835 23.3996 23.5012 20.9819 23.5012 17.9996Z" fill="#5879EE"></path>
  <path d="M36.0012 30.5992C36.0012 27.6169 33.5835 25.1992 30.6012 25.1992C27.6188 25.1992 25.2012 27.6169 25.2012 30.5992C25.2012 33.5816 27.6188 35.9992 30.6012 35.9992C33.5835 35.9992 36.0012 33.5816 36.0012 30.5992Z" fill="#F64963"></path>
</svg>
