<?xml version="1.0" encoding="UTF-8"?>
<svg xmlns="http://www.w3.org/2000/svg" width="78" height="48" viewBox="0 0 78 48" fill="none">
  <path d="M7.43201 28.3593L7.08406 28.4268C3.54351 29.1131 1.65481 33.0078 3.30824 36.2129C3.57714 36.7342 3.92908 37.2082 4.35025 37.6164L13 46L21.6497 37.6164C22.0709 37.2082 22.4229 36.7342 22.6918 36.2129C24.3452 33.0078 22.4565 29.1131 18.9159 28.4268L18.568 28.3593C17.3647 28.1261 16.1181 28.2889 15.0151 28.8235L13 29.8L10.9849 28.8235C9.88187 28.2889 8.63535 28.1261 7.43201 28.3593Z" fill="#F64963"></path>
  <path d="M59.432 28.3593L59.0841 28.4268C55.5435 29.1131 53.6548 33.0078 55.3082 36.2129C55.5771 36.7342 55.9291 37.2082 56.3503 37.6164L65 46L73.6497 37.6164C74.0709 37.2082 74.4229 36.7342 74.6918 36.2129C76.3452 33.0078 74.4565 29.1131 70.9159 28.4268L70.568 28.3593C69.3647 28.1261 68.1181 28.2889 67.0151 28.8235L65 29.8L62.9849 28.8235C61.8819 28.2889 60.6353 28.1261 59.432 28.3593Z" fill="#F64963"></path>
  <path d="M33.432 28.3593L33.0841 28.4268C29.5435 29.1131 27.6548 33.0078 29.3082 36.2129C29.5771 36.7342 29.9291 37.2082 30.3503 37.6164L39 46L47.6497 37.6164C48.0709 37.2082 48.4229 36.7342 48.6918 36.2129C50.3452 33.0078 48.4565 29.1131 44.9159 28.4268L44.568 28.3593C43.3647 28.1261 42.1181 28.2889 41.0151 28.8235L39 29.8L36.9849 28.8235C35.8819 28.2889 34.6353 28.1261 33.432 28.3593Z" fill="#F64963"></path>
  <path d="M33.432 2.35933L33.0841 2.42678C29.5435 3.11311 27.6548 7.00779 29.3082 10.2129C29.5771 10.7342 29.9291 11.2082 30.3503 11.6164L39 20L47.6497 11.6164C48.0709 11.2082 48.4229 10.7342 48.6918 10.2129C50.3452 7.00779 48.4565 3.1131 44.9159 2.42678L44.568 2.35933C43.3647 2.12607 42.1181 2.28891 41.0151 2.82345L39 3.8L36.9849 2.82345C35.8819 2.28891 34.6353 2.12607 33.432 2.35933Z" fill="#F64963"></path>
</svg>
