<?xml version="1.0" encoding="UTF-8"?>
<svg xmlns="http://www.w3.org/2000/svg" width="36" height="36" viewBox="0 0 36 36" fill="none">
  <path d="M23.3999 18C23.3999 15.0176 20.9822 12.6 17.9999 12.6C15.0175 12.6 12.5999 15.0176 12.5999 18C12.5999 20.9823 15.0175 23.4 17.9999 23.4C20.9822 23.4 23.3999 20.9823 23.3999 18Z" fill="#5879EE"></path>
  <path d="M18 0H5.4C2.41766 0 0 2.41766 0 5.4C0 8.38234 2.41766 10.8 5.4 10.8H18C20.9823 10.8 23.4 8.38234 23.4 5.4C23.4 2.41766 20.9823 0 18 0Z" fill="#F64963"></path>
  <path d="M19.5303 36H16.2003C13.2195 36 10.8003 33.5808 10.8003 30.6C10.8003 27.6192 13.2195 25.2 16.2003 25.2H19.5303C22.6587 25.2 25.2003 22.6548 25.2003 19.53V5.4C25.2003 2.4192 27.6195 0 30.6003 0C33.5811 0 36.0003 2.4192 36.0003 5.4V19.53C36.0003 28.6128 28.6131 36 19.5303 36Z" fill="#A769F6"></path>
  <path d="M19.5303 36H16.2003C13.2195 36 10.8003 33.5808 10.8003 30.6C10.8003 27.6192 13.2195 25.2 16.2003 25.2H19.5303C22.6587 25.2 25.2003 22.6548 25.2003 19.53C25.2003 16.4052 27.6195 14.13 30.6003 14.13C33.5811 14.13 36.0003 16.5492 36.0003 19.53C36.0003 28.6128 28.6131 36 19.5303 36Z" fill="#FF8541"></path>
</svg>
