<?xml version="1.0" encoding="UTF-8"?>
<svg xmlns="http://www.w3.org/2000/svg" width="75" height="48" viewBox="0 0 75 48" fill="none">
  <g id="Ring_logo 1" clip-path="url(#clip0_14_3072)">
    <g id="Group">
      <path id="Vector" d="M15.5689 12.6293C15.5705 13.0387 15.406 13.4304 15.1147 13.7113C14.8218 14.0115 14.4208 14.1751 14.0062 14.1638C13.6086 14.1516 13.2303 13.9857 12.9478 13.6995C11.8366 12.5636 10.0109 12.1083 8.8179 12.1139C7.00378 12.1139 5.5849 12.7487 4.56103 14.0182C3.5372 15.2877 3.02403 17.0897 3.02153 19.4242V36.1734C3.05298 36.616 2.87561 37.0474 2.54426 37.3341C2.25506 37.5828 1.89069 37.7218 1.51274 37.7275C1.13483 37.7218 0.770439 37.5828 0.481214 37.3341C0.149339 37.0477 -0.0281233 36.6161 0.00395165 36.1734V19.4242C-0.00623585 18.0569 0.180514 16.6954 0.558164 15.3836C0.900002 14.1868 1.46454 13.0686 2.22091 12.0905C2.95948 11.139 3.89716 10.3687 4.96516 9.83611C6.16918 9.26301 7.48629 8.98164 8.81404 9.0138C9.95253 9.03387 11.0784 9.26033 12.1395 9.68267C13.2326 10.0778 14.2292 10.71 15.0608 11.5358C15.37 11.8135 15.5538 12.2092 15.5689 12.6296L15.5689 12.6293Z" fill="#5D5D6C"></path>
      <path id="Vector_2" d="M23.1202 36.1728C23.1357 36.391 23.1005 36.6099 23.0176 36.8116C22.9347 37.0132 22.8063 37.1921 22.6429 37.3334C22.3543 37.5838 21.988 37.7212 21.6095 37.7212C21.2309 37.7212 20.8647 37.5838 20.5761 37.3334C20.4125 37.1923 20.2839 37.0135 20.2009 36.8117C20.118 36.61 20.083 36.391 20.0988 36.1728V11.0835C20.0833 10.8652 20.1184 10.6464 20.2014 10.4447C20.2843 10.243 20.4127 10.0642 20.5761 9.92281C20.865 9.67318 21.2312 9.53622 21.6095 9.53622C21.9878 9.53622 22.354 9.67318 22.6429 9.92281C22.8061 10.0644 22.9343 10.2432 23.0172 10.4449C23.1001 10.6465 23.1354 10.8653 23.1202 11.0835V36.1728Z" fill="#5D5D6C"></path>
      <path id="Vector_3" d="M49.3177 36.1727C49.3327 36.3913 49.297 36.6104 49.2133 36.8121C49.1297 37.0138 49.0006 37.1924 48.8365 37.3334C48.5482 37.5827 48.1827 37.7195 47.805 37.7195C47.4274 37.7195 47.0619 37.5827 46.7735 37.3334C46.6099 37.1922 46.4814 37.0135 46.3984 36.8117C46.3155 36.61 46.2805 36.391 46.2963 36.1727V19.0658C46.3025 18.137 46.1217 17.2169 45.7651 16.3627C45.0724 14.6935 43.7725 13.3646 42.1395 12.6565C41.3016 12.2998 40.4029 12.1161 39.4952 12.1161C38.5876 12.1161 37.6889 12.2998 36.851 12.6565C35.2183 13.3649 33.9184 14.6937 33.2254 16.3627C32.8708 17.2175 32.6914 18.1374 32.6981 19.0658V36.1727C32.7139 36.391 32.6789 36.61 32.5959 36.8117C32.513 37.0135 32.3844 37.1922 32.2208 37.3334C31.9322 37.5838 31.5659 37.7212 31.1874 37.7212C30.8088 37.7212 30.4426 37.5838 30.1539 37.3334C29.9903 37.1922 29.8618 37.0135 29.7788 36.8117C29.6959 36.61 29.6609 36.391 29.6767 36.1727V19.0658C29.6669 17.7206 29.9289 16.3878 30.4465 15.151C30.9367 13.9592 31.6462 12.8747 32.5363 11.9563C33.423 11.0536 34.4675 10.329 35.6155 9.81996C36.8327 9.29119 38.1418 9.01866 39.4644 9.01866C40.787 9.01866 42.0961 9.29119 43.3133 9.81996C45.6709 10.822 47.5446 12.7373 48.5248 15.1473C49.0417 16.3843 49.3038 17.7169 49.2946 19.0621L49.3177 36.1727Z" fill="#5D5D6C"></path>
      <path id="Vector_4" d="M75.0001 37.9745C75.0133 39.3264 74.7512 40.6662 74.2303 41.9089C73.236 44.3078 71.3607 46.2121 69.0076 47.2126C67.7974 47.7407 66.4938 48.0086 65.178 47.9995C64.4334 47.9952 63.691 47.9176 62.961 47.7674C62.1713 47.6108 61.398 47.3776 60.6516 47.071C59.9031 46.7664 59.1936 46.3701 58.5386 45.8907C57.9172 45.4432 57.38 44.8848 56.9528 44.2422C56.7805 43.9843 56.6928 43.677 56.7027 43.3648C56.6917 42.9418 56.8669 42.5361 57.1799 42.2593C57.4721 41.9765 57.8591 41.8188 58.2615 41.8186C58.4767 41.8217 58.6895 41.8656 58.8888 41.9484C59.1352 42.058 59.3394 42.2474 59.47 42.4874C60.0686 43.4089 61.3604 44.1382 62.2143 44.4192C63.1644 44.74 64.158 44.906 65.1586 44.911C66.0671 44.9172 66.9671 44.7324 67.8029 44.368C69.4359 43.66 70.7359 42.3311 71.4285 40.6618C71.79 39.814 71.9773 38.8994 71.9789 37.9746V34.4336C71.087 35.3039 70.0423 35.9941 68.8998 36.4678C67.7185 36.9666 66.4522 37.2207 65.174 37.2153C63.8515 37.2292 62.5407 36.9612 61.3252 36.4284C58.9893 35.4137 57.1295 33.5125 56.1368 31.1247C55.6151 29.8823 55.353 28.5422 55.367 27.1903V19.0657C55.3572 17.7206 55.6192 16.3877 56.1368 15.151C56.6265 13.9588 57.336 12.8742 58.2267 11.9563C59.1133 11.0536 60.1578 10.329 61.3058 9.81993C63.7653 8.75157 66.5442 8.75157 69.0037 9.81993C71.3614 10.8216 73.2352 12.737 74.2152 15.1473C74.7321 16.3843 74.9941 17.7169 74.9849 19.062V37.9745L75.0001 37.9745ZM71.9787 19.0658C71.985 18.1371 71.8042 17.217 71.4476 16.3628C70.7549 14.6935 69.455 13.3646 67.822 12.6566C66.1296 11.9361 64.226 11.9361 62.5335 12.6566C60.8958 13.361 59.5902 14.6886 58.8925 16.3588C58.5385 17.2137 58.3591 18.1335 58.3652 19.0618V27.1473C58.3563 28.0822 58.5358 29.009 58.8925 29.8699C59.2365 30.6973 59.733 31.4493 60.3551 32.0849C60.9761 32.7207 61.7121 33.2271 62.522 33.5761C64.2143 34.2965 66.118 34.2965 67.8105 33.5761C69.4435 32.868 70.7435 31.5392 71.4361 29.8699C71.7994 29.0105 71.9842 28.0834 71.9788 27.1473L71.9787 19.0658Z" fill="#5D5D6C"></path>
    </g>
    <path id="Vector_5" d="M21.6113 5.28002C23.0377 5.28002 24.1939 4.09804 24.1939 2.63999C24.1939 1.18194 23.0377 -4.57764e-05 21.6113 -4.57764e-05C20.185 -4.57764e-05 19.0287 1.18194 19.0287 2.63999C19.0287 4.09804 20.185 5.28002 21.6113 5.28002Z" fill="#5D5D6C"></path>
  </g>
  <defs>
    <clipPath id="clip0_14_3072">
      <rect width="75" height="48" fill="white"></rect>
    </clipPath>
  </defs>
</svg>
