<?xml version="1.0" encoding="UTF-8"?>
<svg xmlns="http://www.w3.org/2000/svg" width="150" height="32" viewBox="0 0 150 32" fill="none">
  <g id="Group 35">
    <path id="Vector" d="M30.4039 10.8539H34.933V26.4531H30.3772L30.4039 10.8539Z" fill="#5D5D6C"></path>
    <path id="Vector_2" d="M22.4591 14.535C22.5909 14.535 23.439 14.6942 23.439 15.9119C23.439 17.1296 22.6183 17.1037 22.6183 17.1037H19.7571V14.5084C19.7571 14.5084 22.3265 14.535 22.4591 14.535ZM14.8317 10.9331V26.7182H19.6519V20.8914H21.294C21.294 20.8914 22.1413 20.944 22.8294 23.2223C23.5175 25.4999 23.7827 26.4005 24.0745 26.6123H28.6036C28.6036 26.6123 27.4119 22.7986 26.8557 21.2625C26.2994 19.727 26.0876 19.3293 25.6639 18.9849C25.6639 18.9849 27.9948 17.8991 27.9948 15.1446C27.9948 12.39 25.3195 10.9065 23.6249 10.9065C21.9302 10.9065 14.8317 10.9331 14.8317 10.9331Z" fill="#5D5D6C"></path>
    <path id="Vector_3" d="M0.00012207 10.9332H12.3952V14.4818H4.82038V16.8659H11.9715V20.5204H4.87369V22.9046H12.3952V26.7183H0.00012207V10.9332Z" fill="#5D5D6C"></path>
    <path id="Vector_4" d="M49.8443 14.9587L50.2146 11.3042C50.2146 11.3042 48.3607 10.4036 45.5529 10.4036C42.7457 10.4036 36.5479 11.6753 36.5479 18.2961C36.5479 24.917 41.3681 26.9301 45.447 26.9301C47.3008 26.9301 49.7902 26.4538 50.3731 26.1361L50.108 22.4816C50.108 22.4816 48.0956 23.3289 46.0825 23.3289C44.0693 23.3289 41.3681 21.952 41.3681 18.6672C41.3681 15.3824 43.7516 13.9002 45.8706 13.9002C47.9897 13.9002 49.8443 14.9587 49.8443 14.9587Z" fill="#5D5D6C"></path>
    <path id="Vector_5" d="M58.6374 10.4036C58.6374 10.4036 51.5929 10.0859 51.5929 15.3298C51.5929 18.031 53.0231 19.0909 54.8244 19.7264C56.625 20.3619 59.1144 20.7856 59.1144 22.0566C59.1144 23.3276 56.9953 23.3809 56.5717 23.3809C56.148 23.3809 52.1225 22.4276 52.1225 22.4276L52.0166 26.0828C52.0166 26.0828 54.3474 26.8249 56.9427 26.8249C59.5381 26.8249 63.6169 26.242 63.6169 21.2625C63.6169 18.4554 61.3919 17.7133 60.4913 17.2896C59.5907 16.8659 56.3072 16.1778 56.3072 15.2239C56.3072 14.2699 57.8427 13.7937 58.4789 13.7937C59.1151 13.7937 62.5577 14.5351 62.5577 14.5351V11.1983C62.557 11.1983 60.9683 10.4036 58.6374 10.4036Z" fill="#5D5D6C"></path>
    <path id="Vector_6" d="M71.6943 10.3502C71.6943 10.3502 64.6498 10.0325 64.6498 15.2764C64.6498 17.9783 66.08 19.0375 67.8806 19.673C69.6812 20.3085 72.1713 20.7329 72.1713 22.0039C72.1713 23.2749 70.0522 23.3282 69.6286 23.3282C69.2049 23.3282 65.1787 22.3749 65.1787 22.3749L65.0727 26.0301C65.0727 26.0301 67.4036 26.7715 69.9989 26.7715C72.5942 26.7715 76.6731 26.1886 76.6731 21.2098C76.6731 18.4027 74.4488 17.6606 73.5475 17.2369C72.6468 16.8132 69.3627 16.1244 69.3627 15.1712C69.3627 14.2179 70.8989 13.7409 71.5351 13.7409C72.1713 13.7409 75.6132 14.4824 75.6132 14.4824V11.1456C75.6139 11.1449 74.0245 10.3502 71.6943 10.3502Z" fill="#5D5D6C"></path>
    <path id="Vector_7" d="M93.1206 18.4546C93.1206 26.559 85.2814 26.7176 85.0162 26.7176C84.7511 26.7176 77.1763 26.2939 77.1763 18.5606C77.1763 10.8265 85.1221 10.4036 85.1221 10.4036C85.1221 10.4036 93.1206 10.3503 93.1206 18.4546ZM85.0695 13.7403C85.0695 13.7403 81.8913 14.3232 81.8913 18.402C81.8913 22.4809 84.3807 23.3808 85.1221 23.3808C85.8635 23.3808 88.3529 22.6394 88.3529 18.508C88.3529 14.3765 85.0695 13.7403 85.0695 13.7403Z" fill="#5D5D6C"></path>
    <path id="Vector_8" d="M94.7104 10.5095V26.2413H99.3189V17.7665L104.086 26.1887H109.701V10.4036H105.092V19.3553L100.219 10.5095H94.7104Z" fill="#5D5D6C"></path>
    <path id="Vector_9" d="M129.59 13.2892C127.94 13.9275 126.086 13.1068 125.448 11.4578C124.81 9.80799 125.63 7.95409 127.28 7.31649L145.642 0.216563C147.292 -0.421743 149.146 0.398936 149.784 2.04801C150.422 3.69779 149.601 5.55168 147.952 6.18928L129.59 13.2892Z" fill="#5D5D6C"></path>
    <path id="Vector_10" d="M129.59 22.2831C127.94 22.9207 126.086 22.1007 125.448 20.4517C124.81 18.8019 125.63 16.9473 127.28 16.3104L145.642 9.20977C147.292 8.57217 149.146 9.39215 149.784 11.0419C150.422 12.6917 149.601 14.5456 147.952 15.1832L129.59 22.2831Z" fill="#5D5D6C"></path>
    <path id="Vector_11" d="M129.59 30.8357C127.94 31.474 126.086 30.6533 125.448 29.0043C124.81 27.3545 125.63 25.5006 127.28 24.863L145.642 17.7631C147.292 17.1247 149.146 17.9454 149.784 19.5945C150.422 21.2443 149.601 23.0982 147.952 23.7358L129.59 30.8357Z" fill="#5D5D6C"></path>
  </g>
</svg>
