<?xml version="1.0" encoding="UTF-8"?>
<svg xmlns="http://www.w3.org/2000/svg" width="120" height="19" viewBox="0 0 120 19" fill="none">
  <g id="g8">
    <g id="g10">
      <g id="g12">
        <g id="g18">
          <path id="path20" d="M113.932 8.71114V11.2087H115.69V13.6867C115.696 13.9081 115.683 14.1469 115.645 14.338C115.575 14.8002 115.136 15.5872 113.887 15.5872C112.647 15.5872 112.215 14.8002 112.14 14.338C112.108 14.1469 112.095 13.9081 112.095 13.6867V5.85999C112.095 5.58314 112.114 5.28013 112.173 5.05078C112.258 4.63364 112.628 3.81101 113.878 3.81101C115.19 3.81101 115.518 4.67828 115.593 5.05078C115.642 5.2975 115.645 5.71134 115.645 5.71134V6.66172H119.966V6.09989C119.966 6.09989 119.985 5.51366 119.933 4.96656C119.608 1.75412 116.957 0.737768 113.916 0.737768C110.87 0.737768 108.273 1.76358 107.894 4.96656C107.86 5.25946 107.808 5.78632 107.808 6.09989V13.2997C107.808 13.6132 107.818 13.856 107.876 14.4291C108.158 17.5531 110.87 18.6605 113.904 18.6605C116.957 18.6605 119.65 17.5531 119.937 14.4291C119.988 13.856 119.993 13.6132 120 13.2997V8.71114H113.932ZM84.1421 1.19845H79.8034V13.8672C79.8103 14.088 79.8034 14.336 79.7653 14.5179C79.6748 14.9432 79.3138 15.7616 78.1167 15.7616C76.9352 15.7616 76.5647 14.9432 76.4809 14.5179C76.4376 14.336 76.432 14.088 76.4376 13.8672V1.19845H72.1002V13.4741C72.0947 13.7905 72.1196 14.437 72.1383 14.6063C72.4377 17.8051 74.9632 18.8437 78.1167 18.8437C81.2765 18.8437 83.8004 17.8051 84.1053 14.6063C84.1293 14.437 84.1608 13.7905 84.1421 13.4741V1.19845ZM44.2779 1.19845L42.1137 14.5847L39.9507 1.19845H32.9522L32.581 18.3234H36.8686L36.9847 2.47032L39.9347 18.3234H44.2847L47.2374 2.47032L47.3539 18.3234H51.6523L51.2685 1.19845H44.2779ZM18.3661 1.19845L15.1883 18.3234H19.8224L22.217 2.47032L24.5542 18.3234H29.1561L25.9916 1.19845H18.3661ZM99.3049 14.986L95.2649 1.19845H88.8988V18.1448H93.1101L92.8656 3.91612L97.2043 18.1448H103.31V1.19845H99.0709L99.3049 14.986ZM60.3509 5.65527C60.2747 5.31707 60.2967 4.95776 60.3361 4.76997C60.4588 4.22178 60.8278 3.62388 61.8909 3.62388C62.8817 3.62388 63.4626 4.24047 63.4626 5.16578V6.21292H67.692V5.01933C67.692 1.3295 64.3781 0.749863 61.9788 0.749863C58.957 0.749863 56.4892 1.74423 56.0385 4.52061C55.9193 5.27617 55.8898 5.94685 56.0794 6.80268C56.8143 10.2645 62.8515 11.2687 63.7278 13.458C63.8824 13.8727 63.8382 14.4016 63.7593 14.7132C63.628 15.2829 63.2441 15.8559 62.1059 15.8559C61.0384 15.8559 60.3958 15.2433 60.3958 14.32L60.3945 12.6765H55.8422V13.9829C55.8422 17.7684 58.8125 18.9105 62.0116 18.9105C65.0755 18.9105 67.6061 17.8653 68.012 15.0322C68.2057 13.5684 68.0596 12.6149 67.9819 12.2558C67.2726 8.7052 60.8379 7.63718 60.3509 5.65527ZM4.5598 5.61327C4.47676 5.26803 4.49614 4.90367 4.5424 4.71368C4.65959 4.16812 5.03076 3.55967 6.11256 3.55967C7.11593 3.55967 7.70673 4.18219 7.70673 5.11499V6.17488H11.9857V4.97184C11.9857 1.2466 8.62111 0.652889 6.1956 0.652889C3.14846 0.652889 0.658638 1.66265 0.203098 4.45904C0.0784192 5.22669 0.057045 5.90199 0.237234 6.76727C0.98002 10.2684 7.07694 11.2808 7.96401 13.4963C8.13011 13.9081 8.07988 14.437 7.9975 14.7607C7.85674 15.3363 7.46971 15.9175 6.32205 15.9175C5.25038 15.9175 4.60937 15.2943 4.60937 14.3582L4.60342 12.7104H0V14.0198C0 17.8486 3.01233 19 6.23636 19C9.33592 19 11.8813 17.9456 12.2965 15.0797C12.5029 13.6025 12.348 12.6411 12.2784 12.2765C11.5544 8.68233 5.04816 7.61783 4.5598 5.61327Z" fill="#5D5D6C"></path>
        </g>
      </g>
    </g>
  </g>
</svg>
