<?xml version="1.0" encoding="UTF-8"?>
<svg xmlns="http://www.w3.org/2000/svg" width="150" height="19" viewBox="0 0 150 19" fill="none">
  <g id="g4558">
    <g id="g3623">
      <g id="g3625">
        <g id="g3631">
          <path id="path3633" d="M149.754 17.0392C149.754 17.8608 149.161 18.4541 148.357 18.4541C147.556 18.4541 146.959 17.8608 146.959 17.0392C146.959 16.2176 147.556 15.6227 148.357 15.6227C149.161 15.6227 149.754 16.2176 149.754 17.0392ZM150 17.0392C150 16.1308 149.265 15.3944 148.357 15.3944C147.453 15.3944 146.715 16.1308 146.715 17.0392C146.715 17.9476 147.453 18.6824 148.357 18.6824C149.265 18.6824 150 17.9476 150 17.0392Z" fill="#5D5D6C"></path>
        </g>
        <g id="g3635">
          <path id="path3637" d="M148.66 16.6557C148.66 16.8985 148.459 16.9242 148.264 16.9242H148.092V16.3856H148.346C148.576 16.3856 148.66 16.4966 148.66 16.6557ZM149.068 17.8776L148.671 17.3197C148.6 17.2201 148.551 17.1525 148.473 17.0946C148.76 17.0577 148.925 16.9017 148.925 16.6557C148.925 16.4033 148.748 16.175 148.404 16.175H147.848V17.8776H148.092V17.1155C148.226 17.1155 148.277 17.1574 148.359 17.2812L148.771 17.8776H149.068Z" fill="#5D5D6C"></path>
        </g>
      </g>
    </g>
    <g id="g3719">
      <path id="path3721" d="M9.41842 4.20739L6.30574 11.4746H12.5584L9.41842 4.20739ZM18.9397 18.6855H15.5682L13.7257 14.3027H5.13688L3.26863 18.6855H0L7.99231 0.393719H10.9474L18.9397 18.6855Z" fill="#5D5D6C"></path>
    </g>
    <g id="g3723">
      <path id="path3725" d="M48.3865 18.686H45.1677V3.48113H39.407V0.5228H54.4044L53.168 3.48113H48.3865V18.686Z" fill="#5D5D6C"></path>
    </g>
    <g id="g3727">
      <path id="path3729" d="M109.488 3.48098H99.7612V8.10015H105.991V10.9572H99.7612V15.7838H109.493V18.6858H96.5488V0.522648H109.488V3.48098Z" fill="#5D5D6C"></path>
    </g>
    <path id="path3731" d="M132.293 18.6869H129.25V0.523722H132.293V18.6869Z" fill="#5D5D6C"></path>
    <g id="g3733">
      <g id="g3735">
        <g id="g3741">
          <path id="path3743" d="M119.353 3.144C117.498 3.144 115.921 3.70512 115.913 4.93669C115.903 6.37887 116.808 6.87889 120.225 7.98987C124 9.23108 126.005 10.4932 125.984 13.5641C125.965 17.0256 123.289 19 119.382 19C116.617 19 114.138 18.1029 112.247 16.4404L113.424 13.5914C115.139 15.0288 117.218 16.0481 119.464 16.0577C121.431 16.0674 122.83 15.1108 122.83 13.6943C122.83 12.5094 122.145 11.7215 118.831 10.6717C115.03 9.42563 112.734 8.12654 112.754 5.03155C112.776 1.95263 115.664 0.201754 119.294 0.219439C122.926 0.237123 124.971 1.56516 125.281 1.74523L124.14 4.33537C123.399 3.93503 121.773 3.144 119.353 3.144Z" fill="#5D5D6C"></path>
        </g>
        <g id="g3745">
          <path id="path3747" d="M136.216 9.31547L144.347 0.522486H140.451L132.293 9.31547L141.258 18.6889H145.207L136.216 9.31547Z" fill="#5D5D6C"></path>
        </g>
        <g id="g3749">
          <path id="path3751" d="M64.2435 16.0685C60.6742 16.0685 58.068 13.1761 58.068 9.60685C58.068 6.03756 60.6742 3.14355 64.2435 3.14355C67.8128 3.14355 70.4206 6.03756 70.4206 9.60685C70.4206 13.1761 67.8128 16.0685 64.2435 16.0685ZM64.2435 0.210943C59.0552 0.210943 54.8508 4.41852 54.8508 9.60685C54.8508 14.7952 59.0552 18.9995 64.2435 18.9995C69.4302 18.9995 73.6378 14.7952 73.6378 9.60685C73.6378 4.41852 69.4302 0.210943 64.2435 0.210943Z" fill="#5D5D6C"></path>
        </g>
        <g id="g3753">
          <path id="path3755" d="M83.8898 15.7806L80.2208 15.7838V3.4842H83.9042C87.4719 3.4842 90.0653 6.01325 90.0653 9.58093C90.0653 13.1486 87.4558 15.7806 83.8898 15.7806ZM83.8898 0.524265H76.9988V18.6874L83.8898 18.6858C89.0749 18.6858 93.2808 14.7677 93.2808 9.58093C93.2808 4.3926 89.0749 0.524265 83.8898 0.524265Z" fill="#5D5D6C"></path>
        </g>
        <g id="g3757">
          <path id="path3759" d="M35.8997 10.6387C35.8997 16.0537 32.7228 18.9734 28.1148 18.9734C23.5085 18.9734 20.3315 16.0537 20.3315 10.6387V0.524094H23.5487V11.0213C23.5487 14.1983 25.4138 16.0634 28.1148 16.0634C30.8191 16.0634 32.6842 14.1983 32.6842 11.0213V0.524094H35.8997V10.6387Z" fill="#5D5D6C"></path>
        </g>
      </g>
    </g>
  </g>
</svg>
