<?xml version="1.0" encoding="UTF-8"?>
<svg xmlns="http://www.w3.org/2000/svg" width="150" height="29" viewBox="0 0 150 29" fill="none">
  <path d="M142.05 24.0702C142.05 21.8753 143.832 20.0945 146.025 20.0945C148.22 20.0945 150 21.8753 150 24.0702C150 26.2651 148.22 28.0447 146.025 28.0447C143.832 28.0447 142.05 26.2651 142.05 24.0702Z" fill="#5D5D6C"></path>
  <path d="M15.2586 13.5414C15.2586 11.0232 14.772 9.155 13.7988 7.93791C12.8244 6.72197 11.3484 6.11457 9.36406 6.11457H7.25317V21.5135H8.86818C11.0723 21.5135 12.6875 20.86 13.7159 19.5486C14.7431 18.2395 15.2586 16.2367 15.2586 13.5414ZM22.7865 13.2791C22.7865 17.8668 21.5533 21.4018 19.0869 23.8832C16.6205 26.3657 13.1534 27.6069 8.68417 27.6069H0V0.116577H9.29036C13.5996 0.116577 16.9265 1.24508 19.2709 3.50096C21.6143 5.75798 22.7865 9.01583 22.7865 13.2791Z" fill="#5D5D6C"></path>
  <path d="M46.8422 27.6066H53.7525V0.0012207H46.8422V27.6066Z" fill="#5D5D6C"></path>
  <path d="M63.4589 17.3097C63.4589 19.0697 63.689 20.4122 64.148 21.3348C64.6082 22.2585 65.3788 22.7198 66.4625 22.7198C67.5346 22.7198 68.2927 22.2585 68.7344 21.3348C69.1762 20.4122 69.3959 19.0697 69.3959 17.3097C69.3959 15.5588 69.1727 14.2382 68.7252 13.3466C68.2766 12.4528 67.5117 12.0053 66.427 12.0053C65.3663 12.0053 64.6082 12.4505 64.148 13.3363C63.689 14.2232 63.4589 15.5473 63.4589 17.3097ZM76.4293 17.3097C76.4293 20.663 75.5503 23.2789 73.788 25.154C72.0268 27.0303 69.5616 27.969 66.3924 27.969C63.3531 27.969 60.9337 27.0096 59.1381 25.0907C57.3401 23.1719 56.4417 20.579 56.4417 17.3097C56.4417 13.9667 57.3218 11.3691 59.0841 9.51704C60.8464 7.66494 63.3174 6.73891 66.4993 6.73891C68.4653 6.73891 70.2047 7.16802 71.7117 8.02504C73.2198 8.88207 74.384 10.1095 75.2019 11.7085C76.021 13.3052 76.4293 15.1734 76.4293 17.3097Z" fill="#5D5D6C"></path>
  <path d="M79.1738 27.6066H86.0853V17.0417V7.1013H79.1738V27.6066Z" fill="#5D5D6C"></path>
  <path d="M79.1738 4.62103H86.0853V0H79.1738V4.62103Z" fill="#5D5D6C"></path>
  <path d="M100.087 22.3765C101.02 22.3765 102.131 22.1396 103.428 21.6691V26.8284C102.496 27.238 101.61 27.5313 100.768 27.705C99.9261 27.881 98.9378 27.9685 97.8071 27.9685C95.4867 27.9685 93.8141 27.3852 92.7868 26.2211C91.7641 25.0569 91.2511 23.2692 91.2511 20.8569V12.404H88.8308V7.10307H91.2511V1.86658L98.2155 0.655212V7.10307H102.625V12.404H98.2155V20.3852C98.2155 21.7128 98.8401 22.3765 100.087 22.3765Z" fill="#5D5D6C"></path>
  <path d="M116.083 22.3765C117.016 22.3765 118.127 22.1396 119.424 21.6691V26.8284C118.493 27.238 117.606 27.5313 116.764 27.705C115.921 27.881 114.936 27.9685 113.803 27.9685C111.483 27.9685 109.81 27.3852 108.785 26.2211C107.76 25.0569 107.247 23.2692 107.247 20.8569V12.404H104.826V7.10307H107.247V1.78721L114.21 0.655212V7.10307H118.622V12.404H114.21V20.3852C114.21 21.7128 114.835 22.3765 116.083 22.3765Z" fill="#5D5D6C"></path>
  <path d="M128.144 14.8117C128.238 13.6889 128.559 12.8664 129.107 12.3407C129.657 11.8161 130.336 11.5538 131.148 11.5538C132.034 11.5538 132.737 11.8483 133.26 12.4419C133.785 13.032 134.059 13.8223 134.081 14.8117H128.144ZM137.89 9.15647C136.247 7.54596 133.917 6.73952 130.901 6.73952C127.732 6.73952 125.293 7.66555 123.584 9.51765C121.876 11.3697 121.021 14.0271 121.021 17.4897C121.021 20.8431 121.945 23.4291 123.788 25.2444C125.632 27.0596 128.221 27.9684 131.556 27.9684C133.157 27.9684 134.536 27.8592 135.691 27.6418C136.839 27.4266 137.95 27.0378 139.028 26.4764L137.966 21.8554C137.183 22.1752 136.437 22.4214 135.733 22.5836C134.716 22.8194 133.6 22.9379 132.385 22.9379C131.053 22.9379 130.002 22.6123 129.231 21.9612C128.46 21.3089 128.05 20.4094 128.003 19.2636H140.355V16.115C140.355 13.0861 139.534 10.7658 137.89 9.15647Z" fill="#5D5D6C"></path>
  <path d="M31.9584 14.8117C32.0527 13.6889 32.3737 12.8664 32.9212 12.3407C33.4699 11.8161 34.1499 11.5538 34.9633 11.5538C35.8468 11.5538 36.5507 11.8483 37.0742 12.4419C37.5999 13.032 37.8725 13.8223 37.8967 14.8117H31.9584ZM41.7055 9.15647C40.0617 7.54596 37.7321 6.73952 34.7159 6.73952C31.5454 6.73952 29.1077 7.66555 27.3994 9.51765C25.6911 11.3697 24.8353 14.0271 24.8353 17.4897C24.8353 20.8431 25.758 23.4291 27.6032 25.2444C29.4461 27.0596 32.0355 27.9684 35.3704 27.9684C36.9717 27.9684 38.3498 27.8592 39.5048 27.6418C40.6529 27.4266 41.7643 27.0378 42.8433 26.4764L41.7804 21.8554C40.9969 22.1752 40.2514 22.4214 39.5486 22.5836C38.5294 22.8194 37.4146 22.9379 36.1997 22.9379C34.8688 22.9379 33.8164 22.6123 33.0456 21.9612C32.2737 21.3089 31.8642 20.4094 31.8171 19.2636H44.1696V16.115C44.1696 13.0861 43.3483 10.7658 41.7055 9.15647Z" fill="#5D5D6C"></path>
</svg>
