<?xml version="1.0" encoding="UTF-8"?>
<svg xmlns="http://www.w3.org/2000/svg" width="150" height="27" viewBox="0 0 150 27" fill="none">
  <g id="g8">
    <path id="path6" d="M19.8363 12.0277C19.7733 11.0831 19.5214 10.1385 19.0176 9.3199L14.7355 1.8262C14.4207 1.25945 14.1688 0.629723 14.0428 0L13.8539 0.314861C12.7834 2.14106 12.7834 4.47103 13.8539 6.29723L17.3174 12.2796C18.3879 14.1058 18.3879 16.4358 17.3174 18.262L17.1285 18.5768C17.0025 17.9471 16.7506 17.3174 16.4358 16.7506L13.2872 11.272L11.272 7.74559C10.9572 7.17884 10.7053 6.54912 10.5793 5.9194L10.3904 6.23426C9.3199 8.06045 9.3199 10.3275 10.3904 12.2166L13.8539 18.199C14.9244 20.0252 14.9244 22.3552 13.8539 24.1814L13.665 24.4962C13.539 23.8665 13.2872 23.2368 12.9723 22.67L8.6272 15.1763C8.06045 14.1688 7.80856 13.0353 7.80856 11.9018C3.21159 13.0982 0 15.6801 0 18.6398C0 22.796 6.17128 26.1335 13.7909 26.1335C21.4106 26.1335 27.5819 22.796 27.5819 18.6398C27.6448 15.806 24.4962 13.2242 19.8363 12.0277ZM32.8715 24.8111C32.9345 23.7406 33.0605 23.0479 33.3753 22.1662C34.8237 22.8589 36.7128 23.1738 38.0982 23.1738C40.4912 23.1738 41.8766 22.4181 41.8766 20.8438C41.8766 19.3325 40.869 18.6398 38.4761 17.5693L37.1537 17.0655C34.6977 15.995 33.0605 14.6096 33.0605 11.9018C33.0605 8.94207 35.1385 7.0529 39.2947 7.0529C40.995 7.0529 42.5693 7.30479 44.0176 7.80857C43.9547 8.81612 43.7657 9.63476 43.5139 10.3904C42.1285 9.88665 40.4282 9.63476 39.2317 9.63476C36.9647 9.63476 35.9572 10.5164 35.9572 11.9018C35.9572 13.2242 36.9647 14.0428 38.7909 14.7985L40.1763 15.3652C43.4509 16.7506 44.8363 18.262 44.8363 20.7809C44.8363 23.7406 42.5693 25.8186 38.1612 25.8186C36.0831 25.8186 34.3199 25.5038 32.8715 24.8111ZM58.7532 12.4055V25.3778H56.1083L55.9824 23.8035C55.2267 24.937 54.1562 25.6927 52.33 25.6927C48.9295 25.6927 46.5995 23.1738 46.5995 18.8287C46.5995 14.2947 49.0554 11.6499 53.8413 11.6499C55.7305 11.7128 57.3048 11.9018 58.7532 12.4055ZM55.9194 22.4181V14.2947C55.3526 14.1688 54.66 14.1688 53.8413 14.1688C50.8816 14.1688 49.4962 15.995 49.4962 18.8917C49.4962 21.5365 50.5668 23.4257 53.0856 23.4257C54.2821 23.3627 55.1637 22.9849 55.9194 22.4181ZM73.3627 16.6877V25.3778H70.529V17.1914C70.529 15.1134 69.8363 14.1688 67.0025 14.1688C66.3098 14.1688 65.5542 14.2317 64.7355 14.3577V25.3778H61.9018V12.4055C63.728 11.9647 65.7431 11.6499 67.0655 11.6499C71.8514 11.7128 73.3627 13.539 73.3627 16.6877ZM81.2972 23.2997C82.1159 23.2997 82.9345 23.1738 83.5013 22.9219C83.4383 23.6776 83.3123 24.5592 83.1864 25.3149C82.4307 25.6297 81.5491 25.7557 80.7935 25.7557C78.0227 25.7557 76.2594 24.4962 76.2594 21.3476V7.68262C77.1411 7.36776 78.2116 7.24181 79.0932 7.24181V12.1537H83.6272C83.5642 13.0353 83.5013 13.8539 83.3753 14.6096H79.0932V20.9698C79.0932 22.6071 79.9118 23.2997 81.2972 23.2997ZM96.5995 12.4055V25.3778H93.9547L93.8287 23.8035C93.0731 24.937 92.0025 25.6927 90.1763 25.6927C86.7758 25.6927 84.4459 23.1738 84.4459 18.8287C84.4459 14.2947 86.9018 11.6499 91.6877 11.6499C93.5768 11.7128 95.0882 11.9018 96.5995 12.4055ZM93.7028 22.4181V14.2947C93.136 14.1688 92.4433 14.1688 91.6247 14.1688C88.665 14.1688 87.2796 15.995 87.2796 18.8917C87.2796 21.5365 88.3501 23.4257 90.869 23.4257C92.0655 23.3627 93.0101 22.9849 93.7028 22.4181ZM111.209 16.6877V25.3778H108.312V17.1914C108.312 15.1134 107.62 14.1688 104.786 14.1688C104.093 14.1688 103.338 14.2317 102.519 14.3577V25.3778H99.6851V12.4055C101.511 11.9647 103.526 11.6499 104.849 11.6499C109.635 11.7128 111.209 13.539 111.209 16.6877ZM125.63 7.24181V25.3778H122.985L122.859 23.7406C122.103 24.937 121.033 25.6927 119.144 25.6927C115.743 25.6927 113.413 23.1738 113.413 18.8287C113.413 14.2947 115.869 11.6499 120.655 11.6499C121.411 11.6499 122.103 11.7128 122.796 11.8388V7.55668C123.678 7.30479 124.685 7.24181 125.63 7.24181ZM122.796 22.4181V14.4207C122.04 14.2947 121.285 14.1688 120.529 14.1688C117.695 14.1688 116.373 15.932 116.373 18.8917C116.373 21.5365 117.443 23.4257 119.962 23.4257C121.096 23.3627 122.04 22.9849 122.796 22.4181ZM139.987 19.8363H130.856C131.234 22.1662 132.557 23.2368 135.139 23.2368C136.713 23.2368 138.287 22.9219 139.673 22.2292C139.547 22.9849 139.421 23.9924 139.232 24.8111C137.909 25.3778 136.587 25.6297 135.013 25.6297C130.227 25.6297 127.96 22.9849 127.96 18.5768C127.96 14.7355 129.723 11.6499 134.257 11.6499C138.35 11.6499 140.113 14.2947 140.113 17.5693C140.113 18.4509 140.113 19.0806 139.987 19.8363ZM130.856 17.4433H137.28C137.28 15.3023 136.146 14.0428 134.194 14.0428C132.116 14.1058 131.045 15.2393 130.856 17.4433ZM150 11.8388C150 12.7204 149.874 13.728 149.748 14.2947C149.055 14.2317 148.426 14.1688 147.607 14.1688C146.914 14.1688 146.222 14.2317 145.529 14.2947V25.3778H142.695V12.4055C143.892 11.9647 145.97 11.6499 147.544 11.6499C148.363 11.7128 149.37 11.7128 150 11.8388Z" fill="#5D5D6C"></path>
  </g>
</svg>
