<?xml version="1.0" encoding="UTF-8"?>
<svg xmlns="http://www.w3.org/2000/svg" width="36" height="36" viewBox="0 0 36 36" fill="none">
  <path d="M10.8 30.6C10.8 27.6177 8.38234 25.2 5.4 25.2C2.41766 25.2 0 27.6177 0 30.6C0 33.5823 2.41766 36 5.4 36C8.38234 36 10.8 33.5823 10.8 30.6Z" fill="#F64963"></path>
  <path d="M36 5.4C36 2.41766 33.5823 0 30.6 0C27.6177 0 25.2 2.41766 25.2 5.4C25.2 8.38234 27.6177 10.8 30.6 10.8C33.5823 10.8 36 8.38234 36 5.4Z" fill="#FF8541"></path>
  <path d="M18 23.4H11.7C5.2488 23.4 0 18.1512 0 11.7C0 5.2488 5.2488 0 11.7 0H18C20.9808 0 23.4 2.4192 23.4 5.4C23.4 8.3808 20.9808 10.8 18 10.8H11.7C11.2032 10.8 10.8 11.2032 10.8 11.7C10.8 12.1968 11.2032 12.6 11.7 12.6H18C20.9808 12.6 23.4 15.0192 23.4 18C23.4 20.9808 20.9808 23.4 18 23.4Z" fill="#5879EE"></path>
  <path d="M24.3 36H18C15.0192 36 12.6 33.5808 12.6 30.6C12.6 27.6192 15.0192 25.2 18 25.2H24.3C24.7968 25.2 25.2 24.7968 25.2 24.3C25.2 23.8032 24.7968 23.4 24.3 23.4H18C15.0192 23.4 12.6 20.9808 12.6 18C12.6 15.0192 15.0192 12.6 18 12.6H24.3C30.7512 12.6 36 17.8488 36 24.3C36 30.7512 30.7512 36 24.3 36Z" fill="#A769F6"></path>
</svg>
