<?xml version="1.0" encoding="UTF-8"?>
<svg xmlns="http://www.w3.org/2000/svg" width="48" height="48" viewBox="0 0 48 48" fill="none">
  <path d="M2 7.33831C2 5.40516 3.3825 3.74864 5.28446 3.40283L23.2845 0.130099C23.7576 0.0440714 24.2424 0.0440714 24.7155 0.130099L42.7155 3.40282C44.6175 3.74864 46 5.40516 46 7.33831V16.4984C46 23.8238 42.9098 30.8092 37.4895 35.7368L26.6907 45.5539C25.165 46.9409 22.835 46.9409 21.3093 45.5539L10.5105 35.7368C5.09018 30.8093 2 23.8238 2 16.4984V7.33831Z" fill="#5879EE"></path>
  <path d="M23.2 24.2002H18.4C17.0745 24.2002 16 25.2747 16 26.6002C16 27.9257 17.0745 29.0002 18.4 29.0002H23.2C24.5255 29.0002 25.6 27.9257 25.6 26.6002C25.6 25.2747 24.5255 24.2002 23.2 24.2002Z" fill="white"></path>
  <path d="M29.6 18.6001H18.4C17.0745 18.6001 16 19.6746 16 21.0001C16 22.3256 17.0745 23.4001 18.4 23.4001H29.6C30.9255 23.4001 32 22.3256 32 21.0001C32 19.6746 30.9255 18.6001 29.6 18.6001Z" fill="white"></path>
  <path d="M31.9992 15.4C31.9992 14.0745 30.9247 13 29.5992 13C28.2737 13 27.1992 14.0745 27.1992 15.4C27.1992 16.7255 28.2737 17.8 29.5992 17.8C30.9247 17.8 31.9992 16.7255 31.9992 15.4Z" fill="white"></path>
</svg>
