<?xml version="1.0" encoding="utf-8"?><svg width="54" height="484" viewBox="0 0 54 484" xmlns="http://www.w3.org/2000/svg" xmlns:xlink="http://www.w3.org/1999/xlink"><svg width="33" height="38" fill="none" viewBox="-1 -1 33 38" id="badge-atlassian" xmlns="http://www.w3.org/2000/svg"><path d="M9.554 13.477a.83.83 0 00-1.413.154L.974 27.965a.857.857 0 00.764 1.241h9.98a.825.825 0 00.768-.485c2.15-4.416.848-11.204-2.932-15.244z" fill="url(#apaint0_linear_711_359)"/><path d="M14.812.459a18.904 18.904 0 00-1.104 18.666l4.836 9.596a.856.856 0 00.764.476h9.98a.883.883 0 00.737-1.232L16.27.46a.808.808 0 00-1.458 0zM27.95 33.898l1.101 2.047h.978v-3.653h-.778v2.357l-.294-.683-.885-1.674h-1.228v3.653h.778v-2.786l.328.74zM21.894 32.292h-.851v3.653h.85v-3.653zM20.06 34.865c0-.64-.339-.94-1.295-1.146-.528-.116-.656-.233-.656-.402 0-.212.189-.3.537-.3.422 0 .84.127 1.234.305v-.835a2.79 2.79 0 00-1.207-.25c-.946 0-1.435.41-1.435 1.084 0 .537.25.967 1.229 1.156.583.122.706.217.706.411 0 .195-.123.311-.536.311a3.017 3.017 0 01-1.418-.383v.879c.294.144.683.305 1.409.305 1.022 0 1.428-.456 1.428-1.134M16.518 34.865c0-.64-.336-.94-1.295-1.146-.528-.116-.656-.233-.656-.402 0-.212.189-.3.537-.3.422 0 .839.127 1.233.305v-.835a2.79 2.79 0 00-1.207-.25c-.945 0-1.435.41-1.435 1.084 0 .537.25.967 1.23 1.156.583.122.705.217.705.411 0 .195-.122.311-.537.311a3.017 3.017 0 01-1.417-.383v.879c.295.144.684.305 1.409.305 1.023 0 1.428-.456 1.428-1.134M7.95 35.155v-2.863h-.856v3.653h1.748l.275-.79H7.95zM5.438 35.945V33.08H6.45v-.789H3.637v.79h.945v2.863h.856zM2.397 32.292H1.275L0 35.945h.976l.181-.615c.445.13.918.13 1.362 0l.18.615h.974l-1.276-3.653zm-.561 2.38c-.16 0-.317-.023-.47-.068l.47-1.594.47 1.594c-.153.045-.311.068-.47.067zM11.854 32.292h-1.122l-1.275 3.653h.973l.181-.615c.445.13.917.13 1.362 0l.18.615h.973l-1.272-3.653zm-.561 2.38c-.16 0-.317-.023-.47-.068l.47-1.594.47 1.594c-.153.045-.311.068-.47.067zM24.96 32.292h-1.123l-1.274 3.653h.972l.18-.615c.445.13.918.13 1.363 0l.18.615h.974l-1.273-3.653zm-.562 2.38c-.159 0-.317-.023-.47-.068l.47-1.594.47 1.594c-.153.045-.31.068-.47.067z" fill="#2684FF"/><defs><linearGradient id="apaint0_linear_711_359" x1="13.484" y1="15.689" x2="5.92" y2="28.796" gradientUnits="userSpaceOnUse"><stop stop-color="#0052CC"/><stop offset=".92" stop-color="#2684FF"/></linearGradient></defs></svg><svg width="54" height="38" fill="none" viewBox="-1 -1 54 38" id="badge-salesforce" y="38" xmlns="http://www.w3.org/2000/svg"><g clip-path="url(#bclip0_853_20)"><mask id="ba" style="mask-type:alpha" maskUnits="userSpaceOnUse" x="0" y="0" width="52" height="36"><path d="M.098 0h51.536v36H.098V0z" fill="#fff"/></mask><g mask="url(#ba)"><path fill-rule="evenodd" clip-rule="evenodd" d="M21.495 3.941c1.664-1.732 3.979-2.804 6.537-2.804 3.41 0 6.366 1.894 7.958 4.718a10.99 10.99 0 014.49-.957c6.14 0 11.122 5.02 11.122 11.217 0 6.195-4.983 11.216-11.122 11.216-.75 0-1.481-.075-2.198-.218-1.392 2.483-4.054 4.169-7.086 4.169a8.09 8.09 0 01-3.562-.819c-1.412 3.316-4.699 5.647-8.526 5.647a9.26 9.26 0 01-8.697-6.063 8.542 8.542 0 01-1.77.184C3.885 30.23.04 26.328.04 21.534a8.74 8.74 0 014.301-7.541 9.967 9.967 0 01-.824-3.98C3.516 4.482 8.006.01 13.539.01a9.979 9.979 0 017.958 3.94M7.55 18.72c-.033.084.011.102.022.117.097.07.195.12.293.178.527.278 1.024.36 1.543.36 1.057 0 1.714-.563 1.714-1.469v-.018c0-.837-.742-1.142-1.436-1.36l-.09-.03c-.525-.17-.978-.318-.978-.663v-.017c0-.296.265-.514.674-.514.455 0 .997.152 1.344.343 0 0 .102.067.14-.033.02-.053.197-.526.216-.58.02-.055-.015-.097-.052-.118a2.995 2.995 0 00-1.515-.408H9.32c-.968 0-1.645.586-1.645 1.424v.018c0 .883.747 1.17 1.444 1.37l.112.034c.508.157.948.292.948.648v.018c0 .328-.286.572-.745.572-.178 0-.746-.003-1.362-.392-.075-.043-.117-.074-.174-.11-.03-.018-.107-.051-.14.048l-.208.58v.002zm15.479-.002c-.032.085.011.102.022.117.097.07.195.121.294.178.527.279 1.023.36 1.542.36 1.058 0 1.715-.563 1.715-1.468v-.018c0-.838-.74-1.143-1.436-1.36l-.09-.03c-.526-.17-.979-.318-.979-.663v-.018c0-.295.266-.513.675-.513.455 0 .995.151 1.343.343 0 0 .103.066.14-.033.02-.054.198-.527.215-.58.02-.055-.015-.097-.052-.119a2.995 2.995 0 00-1.515-.407h-.106c-.968 0-1.645.586-1.645 1.423v.018c0 .883.747 1.171 1.444 1.37l.112.035c.51.156.948.292.948.648v.018c0 .328-.287.572-.745.572-.179 0-.749-.003-1.363-.392-.074-.044-.117-.074-.174-.11-.02-.012-.108-.047-.139.048l-.208.58.002.001zm10.57-1.775c0 .512-.095.915-.282 1.201-.186.283-.468.421-.86.421-.392 0-.673-.137-.857-.419-.185-.284-.278-.69-.278-1.201 0-.512.094-.913.278-1.196.184-.28.463-.415.857-.415.394 0 .674.136.86.415.188.283.282.684.282 1.196v-.002zm.883-.947a2.133 2.133 0 00-.401-.768 1.923 1.923 0 00-.679-.515 2.222 2.222 0 00-.947-.19c-.36 0-.677.064-.948.19-.268.126-.498.3-.678.515-.18.216-.314.474-.401.768-.087.292-.13.61-.13.949 0 .34.043.657.13.95.086.293.221.55.401.767.18.216.41.388.679.511.27.123.589.186.947.186s.676-.063.945-.186c.27-.123.499-.295.679-.511a2.14 2.14 0 00.401-.768c.086-.292.13-.61.13-.949 0-.337-.044-.657-.13-.95h.002zm7.255 2.425c-.029-.086-.113-.053-.113-.053a2.02 2.02 0 01-.41.117c-.148.023-.312.035-.484.035-.426 0-.767-.128-1.01-.38-.244-.251-.38-.657-.379-1.206.002-.5.123-.876.34-1.164.214-.284.543-.432.979-.432.364 0 .642.043.934.134 0 0 .07.03.102-.061.078-.214.135-.368.218-.603.024-.067-.034-.095-.055-.104a3.428 3.428 0 00-.59-.149 4.442 4.442 0 00-.662-.044c-.372 0-.701.064-.984.19a2.035 2.035 0 00-1.14 1.282 3.05 3.05 0 00-.144.951c0 .732.197 1.325.587 1.759.39.435.978.655 1.743.655a3.58 3.58 0 001.25-.223s.064-.031.037-.105l-.218-.599zm1.545-1.97c.042-.285.12-.522.243-.705.183-.28.462-.434.854-.434.392 0 .652.154.838.434.123.184.177.43.197.704h-2.141.01zm2.975-.626a1.873 1.873 0 00-.383-.699c-.193-.207-.38-.352-.568-.432a2.18 2.18 0 00-.857-.174c-.373 0-.712.063-.987.192s-.506.305-.688.524c-.181.22-.318.48-.405.777a3.357 3.357 0 00-.131.953c0 .345.045.665.135.955.091.292.237.548.434.76.197.214.45.381.752.498.302.117.667.177 1.086.176.864-.003 1.319-.195 1.504-.3.034-.018.065-.05.026-.142l-.195-.548c-.03-.081-.113-.052-.113-.052-.214.08-.517.224-1.228.222-.464 0-.807-.138-1.023-.353-.22-.22-.33-.54-.346-.994l2.993.002s.079 0 .087-.078c.003-.032.103-.614-.09-1.286h-.003zm-26.905.625c.042-.284.12-.52.242-.704.184-.28.463-.434.855-.434.392 0 .652.154.837.434.123.184.177.43.197.704h-2.14.009zm2.974-.625a1.871 1.871 0 00-.382-.699c-.194-.207-.381-.352-.569-.432a2.18 2.18 0 00-.856-.174c-.373 0-.713.063-.987.192-.275.129-.506.305-.688.524-.181.22-.318.48-.406.777-.087.294-.13.616-.13.953 0 .345.045.665.135.955.09.292.237.548.432.76.197.214.45.381.753.498.3.117.665.177 1.085.176.864-.003 1.319-.195 1.505-.3.033-.018.064-.05.025-.142l-.195-.548c-.03-.081-.113-.052-.113-.052-.214.08-.517.224-1.228.222-.462 0-.807-.138-1.023-.353-.22-.22-.33-.54-.347-.994l2.994.002s.079 0 .087-.078c.003-.032.102-.614-.09-1.286h-.002zm-9.435 2.577a.585.585 0 01-.173-.177.714.714 0 01-.09-.389c0-.261.088-.45.268-.578-.002 0 .257-.223.868-.216.271.005.542.028.81.07v1.358s-.378.082-.806.108c-.608.036-.877-.176-.876-.175l-.001-.001zm1.19-2.103a6.643 6.643 0 00-.467-.013c-.255 0-.504.031-.735.094-.233.063-.443.16-.623.29-.18.129-.329.297-.434.492-.106.198-.16.429-.16.69 0 .265.046.495.137.682.09.186.223.347.39.468.167.121.372.21.609.264.235.053.5.08.792.08.307 0 .612-.025.907-.075.252-.044.503-.092.752-.146.1-.023.21-.054.21-.054.075-.018.069-.097.069-.097l-.002-2.729c0-.599-.16-1.044-.475-1.319-.315-.274-.775-.412-1.372-.412-.224 0-.586.03-.802.073 0 0-.651.127-.92.337 0 0-.06.037-.027.12l.212.568c.026.073.098.048.098.048s.023-.009.05-.024c.573-.313 1.3-.304 1.3-.304.323 0 .573.066.74.194.163.125.246.314.246.712v.126a10.415 10.415 0 00-.493-.058l-.002-.007zm24.063-1.54a.082.082 0 000-.064.083.083 0 00-.045-.044 2.631 2.631 0 00-.5-.085c-.376-.024-.584.04-.772.124-.185.083-.39.218-.504.373v-.364c0-.05-.035-.09-.086-.09h-.765c-.05 0-.086.04-.086.09v4.453a.091.091 0 00.09.09h.785a.09.09 0 00.09-.09v-2.236c0-.3.034-.597.1-.784.064-.186.152-.334.261-.44a.907.907 0 01.37-.222c.13-.037.265-.056.401-.056.156 0 .328.04.328.04.058.006.09-.029.11-.08l.225-.628m-7.33-2.042a2.323 2.323 0 00-.702-.102c-.54 0-.966.153-1.265.455-.298.3-.5.755-.601 1.356l-.037.202h-.678s-.083-.003-.1.087l-.112.622c-.008.06.018.096.098.096h.66l-.67 3.74c-.053.302-.113.55-.18.738a1.51 1.51 0 01-.208.424.554.554 0 01-.273.212c-.103.034-.222.05-.352.05-.072 0-.168-.012-.24-.026-.07-.014-.108-.03-.16-.052 0 0-.078-.03-.109.048-.025.063-.2.547-.222.607-.02.06.009.106.047.12.087.03.153.051.273.08.166.038.306.04.438.04.275 0 .525-.038.733-.113.21-.075.391-.207.552-.385.175-.193.284-.394.389-.669.104-.272.192-.61.262-1.004l.674-3.81h.984s.083.003.1-.087l.112-.622c.008-.06-.018-.096-.098-.096h-.955c.005-.021.048-.358.158-.674a.867.867 0 01.21-.319.619.619 0 01.25-.156 1.04 1.04 0 01.32-.046c.09 0 .179.01.246.025.093.02.129.03.153.037.097.03.11.001.13-.046l.228-.627c.023-.068-.034-.096-.055-.105zM17.464 19.17c0 .05-.036.09-.086.09h-.792c-.05 0-.086-.04-.086-.09v-6.38c0-.05.036-.09.086-.09h.792c.05 0 .086.04.086.09v6.38z" fill="#00A1E0"/></g></g><defs><clipPath id="bclip0_853_20"><path fill="#fff" d="M0 0h52v36H0z"/></clipPath></defs></svg><svg width="16" height="22" fill="none" viewBox="-1 -1 16 22" id="coming-soon" y="76" xmlns="http://www.w3.org/2000/svg"><path d="M1.529 1h10.942L8.709 9.6l-.176.4.176.4L12.47 19H1.529l3.762-8.6.176-.4-.176-.4L1.53 1z" stroke="#16161D" stroke-width="2"/><path d="M0 20h14L9.625 10h-5.25L0 20z" fill="#16161D"/></svg><svg width="24" height="24" fill="none" viewBox="-1 -1 24 24" id="copy" y="98" xmlns="http://www.w3.org/2000/svg"><path d="M7 5a3 3 0 013-3h6a3 3 0 013 3v8a3 3 0 01-3 3h-6a3 3 0 01-3-3V5z" stroke="#A6A6B1" stroke-width="2"/><path fill-rule="evenodd" clip-rule="evenodd" d="M6 7V5a4 4 0 00-4 4v8a4 4 0 004 4h6a4 4 0 004-4h-2a2 2 0 01-2 2H6a2 2 0 01-2-2V9a2 2 0 012-2z" fill="#A6A6B1"/></svg><svg width="50" height="50" fill="none" viewBox="-1 -1 50 50" id="heart" y="122" xmlns="http://www.w3.org/2000/svg"><circle cx="24" cy="24" r="24" fill="#FFF5F2"/><path d="M24 34l8.843-8.843a4.821 4.821 0 00-6.496-7.113L24 20l-2.347-1.956a4.821 4.821 0 00-6.496 7.113L24 34z" fill="#F64963"/></svg><svg width="24" height="24" fill="none" viewBox="-1 -1 24 24" id="ltm-arrow" y="172" xmlns="http://www.w3.org/2000/svg"><path d="M7 15l7-7M8.5 8H14v5.5" stroke="#F64963" stroke-width="2"/></svg><svg width="24" height="24" fill="none" viewBox="-1 -1 24 24" id="ltm-arrow-secondary" y="196" xmlns="http://www.w3.org/2000/svg"><path d="M7 15l7-7M8.5 8H14v5.5" stroke="#A769F6" stroke-width="2"/></svg><svg width="22" height="22" fill="none" viewBox="-1 -1 22 22" id="ltm-arrow-sm" y="220" xmlns="http://www.w3.org/2000/svg"><path d="M6 14l7-7M7.5 7H13v5.5" stroke="#fff" stroke-width="2"/></svg><svg width="12" height="12" fill="none" viewBox="-1 -1 12 12" id="menu-item-chevron" y="242" xmlns="http://www.w3.org/2000/svg"><path d="M8.5 1.75l1.5 1.5-5 5-5-5 1.5-1.5L5 5.25l3.5-3.5z" fill="#16161D"/></svg><svg width="24" height="24" fill="none" viewBox="-1 -1 24 24" id="menu-item-chevron--big" y="254" xmlns="http://www.w3.org/2000/svg"><path d="M14.5 7.75l1.5 1.5-5 5-5-5 1.5-1.5 3.5 3.5 3.5-3.5z" fill="#16161D"/></svg><svg width="50" height="50" fill="none" viewBox="-1 -1 50 50" id="message" y="278" xmlns="http://www.w3.org/2000/svg"><path d="M19 12h12c7.18 0 13 5.82 13 13s-5.82 13-13 13H19c-7.18 0-13-5.82-13-13s5.82-13 13-13z" stroke="#16161D" stroke-width="4"/><path d="M8 30L4 40l10-4-6-6zM20 25a3 3 0 11-6 0 3 3 0 016 0zM28 25a3 3 0 11-6 0 3 3 0 016 0zM36 25a3 3 0 11-6 0 3 3 0 016 0z" fill="#16161D"/></svg><svg width="24" height="24" fill="none" viewBox="-1 -1 24 24" id="more-link" y="328" xmlns="http://www.w3.org/2000/svg"><path d="M6.05 11h9.9M12.063 7.11L15.951 11l-3.89 3.889" stroke="#16161D" stroke-width="2"/></svg><svg width="9" height="12" fill="none" viewBox="-1 -1 9 12" id="pagination-chevron" y="352" xmlns="http://www.w3.org/2000/svg"><path d="M0 1.5L1.5 0l5 5-5 5L0 8.5 3.5 5 0 1.5z" fill="#16161D"/></svg><svg width="18" height="18" fill="none" viewBox="-1 -1 18 18" id="smile" y="364" xmlns="http://www.w3.org/2000/svg"><path d="M12 8a4 4 0 01-8 0" stroke="#16161D" stroke-width="2"/><path fill="#16161D" d="M5 5h2v2H5zM9 5h2v2H9z"/><rect x="1" y="1" width="14" height="14" rx="7" stroke="#16161D" stroke-width="2"/></svg><svg width="26" height="26" fill="none" viewBox="-1 -1 26 26" id="target" y="382" xmlns="http://www.w3.org/2000/svg"><circle cx="12" cy="12" r="7" stroke="#16161D" stroke-width="2"/><circle cx="12" cy="12" r="3" stroke="#16161D" stroke-width="2"/><rect x="1" y="1" width="22" height="22" rx="11" stroke="#16161D" stroke-width="2"/></svg><svg width="50" height="50" fill="none" viewBox="-1 -1 50 50" id="title-arrow" y="408" xmlns="http://www.w3.org/2000/svg"><circle cx="24" cy="24" r="24" fill="#F2F6FF"/><path d="M14 34l17-17M19.5 17H31v11.5" stroke="#5879EE" stroke-width="4"/></svg><svg width="26" height="26" fill="none" viewBox="-1 -1 26 26" id="warning" y="458" xmlns="http://www.w3.org/2000/svg"><path d="M12 9v2m0 4v.01M5 19h14a2 2 0 001.84-2.75L13.74 4a2 2 0 00-3.5 0l-7.1 12.25A2 2 0 004.89 19" stroke="#16161D" stroke-width="2" stroke-linecap="round" stroke-linejoin="round"/></svg></svg>