<?xml version="1.0" encoding="UTF-8"?>
<svg xmlns="http://www.w3.org/2000/svg" width="36" height="36" viewBox="0 0 36 36" fill="none">
  <path d="M16.2 25.2H5.4C2.41766 25.2 0 27.6177 0 30.6C0 33.5823 2.41766 36 5.4 36H16.2C19.1823 36 21.6 33.5823 21.6 30.6C21.6 27.6177 19.1823 25.2 16.2 25.2Z" fill="#F64963"></path>
  <path d="M30.6 12.6H5.4C2.41766 12.6 0 15.0176 0 18C0 20.9823 2.41766 23.4 5.4 23.4H30.6C33.5823 23.4 36 20.9823 36 18C36 15.0176 33.5823 12.6 30.6 12.6Z" fill="#A769F6"></path>
  <path d="M16.2 12.6H5.4C2.41766 12.6 0 15.0176 0 18C0 20.9823 2.41766 23.4 5.4 23.4H16.2C19.1823 23.4 21.6 20.9823 21.6 18C21.6 15.0176 19.1823 12.6 16.2 12.6Z" fill="#FF8541"></path>
  <path d="M36 5.4C36 2.41766 33.5823 0 30.6 0C27.6177 0 25.2 2.41766 25.2 5.4C25.2 8.38234 27.6177 10.8 30.6 10.8C33.5823 10.8 36 8.38234 36 5.4Z" fill="#5879EE"></path>
</svg>
