<?xml version="1.0" encoding="UTF-8"?>
<svg xmlns="http://www.w3.org/2000/svg" width="48" height="48" viewBox="0 0 48 48" fill="none">
  <path d="M20.7958 2.82038C22.2642 0.393206 25.7358 0.393208 27.2042 2.82038L32.6088 11.7539C33.1389 12.6302 33.9941 13.2523 34.9813 13.4797L45.0675 15.8035C47.8569 16.4461 48.9477 19.892 47.05 22.0666L40.346 29.7491C39.6595 30.5358 39.3223 31.5751 39.4136 32.6224L40.3046 42.8355C40.5542 45.6954 37.7272 47.8033 35.1172 46.7034L25.4409 42.6254C24.5184 42.2366 23.4816 42.2366 22.5591 42.6254L12.8827 46.7033C10.2728 47.8033 7.44583 45.6954 7.69535 42.8355L8.58637 32.6224C8.67774 31.5751 8.3405 30.5358 7.65403 29.7491L0.94996 22.0666C-0.947659 19.892 0.14309 16.4461 2.93247 15.8035L13.0187 13.4797C14.0059 13.2523 14.8611 12.6302 15.3912 11.7539L20.7958 2.82038Z" fill="#FF8541"></path>
  <path fill-rule="evenodd" clip-rule="evenodd" d="M20 18H23H25H26V31H29V34H26H23H20V31H23V21H20V18Z" fill="white"></path>
</svg>
